<svg width="900" height="220" viewBox="0 0 900 220" fill="none" xmlns="http://www.w3.org/2000/svg">
  <title>Oweba Gridmark</title>
  <rect width="900" height="220" rx="28" fill="#F8F4EC"/>
  <g opacity="0.42" stroke="#D6D0C6">
    <path d="M18 34H882M18 58H882M18 82H882M18 106H882M18 130H882M18 154H882M18 178H882" />
    <path d="M34 18V202M58 18V202M82 18V202M106 18V202M130 18V202M154 18V202M178 18V202" />
  </g>
  <rect x="30" y="30" width="164" height="164" rx="30" fill="#FFFDF8" stroke="#163A70" stroke-width="4"/>
  <circle cx="112" cy="112" r="36" stroke="#163A70" stroke-width="8"/>
  <circle cx="112" cy="112" r="20" stroke="#2F6BFF" stroke-width="5"/>
  <rect x="68" y="68" width="88" height="88" rx="20" stroke="#163A70" stroke-width="4" stroke-dasharray="6 8"/>
  <path d="M112 48V28" stroke="#8E96A4" stroke-width="3" stroke-linecap="round"/>
  <path d="M112 196V176" stroke="#8E96A4" stroke-width="3" stroke-linecap="round"/>
  <path d="M48 112H28" stroke="#8E96A4" stroke-width="3" stroke-linecap="round"/>
  <path d="M196 112H176" stroke="#8E96A4" stroke-width="3" stroke-linecap="round"/>
  <text x="236" y="136" fill="#163A70" font-family="Arial, Helvetica, sans-serif" font-size="90" font-weight="700" letter-spacing="10">OWEBA</text>
  <g opacity="0.35" stroke="#8E96A4" stroke-width="2">
    <path d="M242 64H814" />
    <path d="M242 108H814" />
    <path d="M242 152H814" />
    <path d="M270 56V164" />
    <path d="M364 56L380 164" />
    <path d="M402 56L418 164" />
    <path d="M490 56V164" />
    <path d="M584 56V164" />
    <path d="M618 56V164" />
    <path d="M700 56V164" />
    <path d="M784 56L766 164" />
    <path d="M820 56L838 164" />
  </g>
</svg>
