<svg width="900" height="220" viewBox="0 0 900 220" fill="none" xmlns="http://www.w3.org/2000/svg">
  <title>Oweba Atelier</title>
  <rect width="900" height="220" rx="28" fill="#F8F4EC"/>
  <g opacity="0.45" stroke="#D6D0C6">
    <path d="M18 42H882M18 86H882M18 130H882M18 174H882" />
    <path d="M42 18V202M86 18V202M130 18V202M174 18V202" />
  </g>
  <rect x="28" y="28" width="168" height="168" rx="34" fill="#FFFDF9" stroke="#163A70" stroke-width="4"/>
  <circle cx="112" cy="112" r="40" stroke="#163A70" stroke-width="8"/>
  <circle cx="112" cy="112" r="24" stroke="#2F6BFF" stroke-width="5"/>
  <path d="M80 80L144 144" stroke="#163A70" stroke-width="6" stroke-linecap="round"/>
  <path d="M144 80L80 144" stroke="#2F6BFF" stroke-width="4" stroke-linecap="round"/>
  <path d="M112 48V28" stroke="#8E96A4" stroke-width="3" stroke-linecap="round"/>
  <path d="M112 196V176" stroke="#8E96A4" stroke-width="3" stroke-linecap="round"/>
  <path d="M48 112H28" stroke="#8E96A4" stroke-width="3" stroke-linecap="round"/>
  <path d="M196 112H176" stroke="#8E96A4" stroke-width="3" stroke-linecap="round"/>
  <text x="236" y="136" fill="#163A70" font-family="Georgia, 'Times New Roman', serif" font-size="88" font-weight="700" letter-spacing="8">OWEBA</text>
  <g opacity="0.42" stroke="#8E96A4" stroke-width="2">
    <path d="M242 62H812" />
    <path d="M242 108H812" />
    <path d="M242 154H812" />
    <path d="M266 56V164" />
    <path d="M356 56L374 164" />
    <path d="M396 56L414 164" />
    <path d="M488 56V164" />
    <path d="M586 56V164" />
    <path d="M622 56V164" />
    <path d="M704 56V164" />
    <path d="M784 56L766 164" />
    <path d="M820 56L838 164" />
  </g>
</svg>
