<svg width="760" height="180" viewBox="0 0 760 180" fill="none" xmlns="http://www.w3.org/2000/svg">
  <title>Oweba Lockup</title>
  <rect width="760" height="180" rx="28" fill="#F8F4EC"/>
  <g opacity="0.28" stroke="#C9C2B4">
    <path d="M24 38H736M24 70H736M24 102H736M24 134H736"/>
    <path d="M42 20V160M74 20V160M106 20V160M138 20V160M170 20V160M202 20V160"/>
  </g>
  <rect x="34" y="30" width="120" height="120" rx="28" fill="#163A70"/>
  <rect x="34" y="30" width="120" height="120" rx="28" stroke="#2F6BFF" stroke-opacity="0.18"/>
  <circle cx="94" cy="90" r="34" stroke="#F8F4EC" stroke-width="6"/>
  <path d="M68 77H120" stroke="#2F6BFF" stroke-width="2.5"/>
  <path d="M68 103H120" stroke="#2F6BFF" stroke-width="2.5"/>
  <path d="M81 64V116" stroke="#2F6BFF" stroke-width="2.5"/>
  <path d="M107 64V116" stroke="#2F6BFF" stroke-width="2.5"/>
  <path d="M81 77H107" stroke="#F8F4EC" stroke-width="4"/>
  <path d="M81 103H107" stroke="#F8F4EC" stroke-width="4"/>
  <path d="M81 77V103" stroke="#F8F4EC" stroke-width="4"/>
  <path d="M107 77V90" stroke="#F8F4EC" stroke-width="4"/>
  <path d="M107 103V116" stroke="#F8F4EC" stroke-width="4"/>
  <path d="M94 90H107" stroke="#F8F4EC" stroke-width="4"/>
  <path d="M94 90C101.18 90 107 95.8203 107 103" stroke="#F8F4EC" stroke-width="3"/>
  <text x="188" y="106" fill="#163A70" font-family="Arial, Helvetica, sans-serif" font-size="76" font-weight="700" letter-spacing="10">OWEBA</text>
  <text x="190" y="130" fill="#5877B5" font-family="Arial, Helvetica, sans-serif" font-size="14" font-weight="600" letter-spacing="5">BLUEPRINT WEB DESIGN</text>
</svg>
