<svg width="1200" height="920" viewBox="0 0 1200 920" fill="none" xmlns="http://www.w3.org/2000/svg">
  <title>Oweba Concept 2 - Keystone</title>
  <rect width="1200" height="920" rx="36" fill="#FAFBFD"/>
  <text x="64" y="86" fill="#0B1020" font-family="Arial, Helvetica, sans-serif" font-size="20" font-weight="700" letter-spacing="3">OWEBA / CONCEPT 02 / KEYSTONE</text>
  <text x="64" y="118" fill="#5A6788" font-family="Arial, Helvetica, sans-serif" font-size="16">Sharper and more refined. More luxury-leaning than Concept 1.</text>
  <rect x="72" y="164" width="1056" height="684" rx="32" fill="white" stroke="#E0E6F2"/>
  <g transform="translate(114 222)">
    <path d="M0 210L84 0H184L268 210H214L194 158H74L54 210H0Z" fill="#0B1020"/>
    <path d="M88 126H180" stroke="#A7B8FF" stroke-width="10"/>
    <path d="M130 46V210" stroke="#A7B8FF" stroke-width="8"/>
    <text x="322" y="154" fill="#0B1020" font-family="Arial, Helvetica, sans-serif" font-size="92" font-weight="700" letter-spacing="10">OWEBA</text>
    <text x="326" y="186" fill="#5A6788" font-family="Arial, Helvetica, sans-serif" font-size="16" font-weight="700" letter-spacing="4">REFINED WEB DESIGN STUDIO</text>
  </g>
  <g transform="translate(114 498)">
    <text x="0" y="0" fill="#0B1020" font-family="Arial, Helvetica, sans-serif" font-size="18" font-weight="700" letter-spacing="2">SYSTEM</text>
    <rect x="0" y="28" width="188" height="160" rx="28" fill="#0B1020"/>
    <path d="M38 154L94 58L150 154H38Z" stroke="#FAFBFD" stroke-width="8"/>
    <path d="M62 120H126" stroke="#A7B8FF" stroke-width="5"/>
    <text x="240" y="76" fill="#0B1020" font-family="Arial, Helvetica, sans-serif" font-size="56" font-weight="700" letter-spacing="8">OWEBA</text>
    <text x="240" y="138" fill="#0B1020" font-family="Arial, Helvetica, sans-serif" font-size="34" font-weight="700" letter-spacing="5">OWEBA</text>
    <rect x="240" y="164" width="64" height="64" rx="18" fill="#0B1020"/>
    <path d="M256 214L272 186H288L304 214H294L290 204H270L266 214H256Z" fill="#FAFBFD"/>
    <rect x="596" y="28" width="140" height="64" rx="18" fill="#0B1020"/>
    <text x="621" y="70" fill="#FAFBFD" font-family="Arial, Helvetica, sans-serif" font-size="30" font-weight="700" letter-spacing="6">OWEBA</text>
    <rect x="760" y="28" width="140" height="64" rx="18" fill="#FAFBFD" stroke="#E0E6F2"/>
    <text x="784" y="70" fill="#0B1020" font-family="Arial, Helvetica, sans-serif" font-size="30" font-weight="700" letter-spacing="6">OWEBA</text>
    <rect x="596" y="122" width="48" height="48" rx="14" fill="#0B1020"/>
    <rect x="654" y="122" width="48" height="48" rx="14" fill="#2F6BFF"/>
    <rect x="712" y="122" width="48" height="48" rx="14" fill="#A7B8FF"/>
    <rect x="770" y="122" width="48" height="48" rx="14" fill="#FAFBFD" stroke="#E0E6F2"/>
  </g>
</svg>
