<svg width="900" height="220" viewBox="0 0 900 220" fill="none" xmlns="http://www.w3.org/2000/svg">
  <title>Oweba Triangle</title>
  <rect width="900" height="220" rx="28" fill="#F8F4EC"/>
  <g opacity="0.42" stroke="#D6D0C6">
    <path d="M18 42H882M18 86H882M18 130H882M18 174H882" />
    <path d="M42 18V202M86 18V202M130 18V202M174 18V202" />
  </g>
  <rect x="28" y="28" width="168" height="168" rx="34" fill="#163A70"/>
  <g stroke-linecap="round" stroke-linejoin="round">
    <path d="M72 156L112 60L152 156H72Z" stroke="#F8F4EC" stroke-width="8"/>
    <path d="M90 156L112 101L134 156" stroke="#2F6BFF" stroke-width="5"/>
    <path d="M84 132H140" stroke="#F8F4EC" stroke-width="6"/>
    <path d="M98 104H126" stroke="#F8F4EC" stroke-opacity="0.8" stroke-width="4"/>
    <path d="M112 46V26" stroke="#F8F4EC" stroke-opacity="0.4" stroke-width="3"/>
    <path d="M46 156H176" stroke="#F8F4EC" stroke-opacity="0.35" stroke-width="3"/>
  </g>
  <text x="236" y="136" fill="#163A70" font-family="'Arial Black', Arial, Helvetica, sans-serif" font-size="86" font-weight="900" letter-spacing="8">OWEBA</text>
  <g opacity="0.36" stroke="#8E96A4" stroke-width="2">
    <path d="M242 62H818" />
    <path d="M242 108H818" />
    <path d="M242 154H818" />
    <path d="M266 54V164" />
    <path d="M360 54L378 164" />
    <path d="M400 54L418 164" />
    <path d="M490 54V164" />
    <path d="M582 54V164" />
    <path d="M616 54V164" />
    <path d="M700 54V164" />
    <path d="M784 54L766 164" />
    <path d="M820 54L838 164" />
  </g>
</svg>
